<?xml version="1.0" encoding="UTF-8"?>
<svg width="274px" height="38px" viewBox="0 0 274 38" version="1.1" xmlns="http://www.w3.org/2000/svg" xmlns:xlink="http://www.w3.org/1999/xlink">
    <title>Z/logo/logo-set</title>
    <defs>
        <linearGradient x1="-12.8864077%" y1="58.9471449%" x2="86.9607238%" y2="56.3680183%" id="linearGradient-1">
            <stop stop-color="#FDD000" offset="0%"/>
            <stop stop-color="#FDD000" offset="10%"/>
            <stop stop-color="#F5A100" offset="74%"/>
            <stop stop-color="#F18D00" offset="100%"/>
        </linearGradient>
    </defs>
    <g id="Z/logo/logo-set" stroke="none" stroke-width="1" fill="none" fill-rule="evenodd">
        <path d="M41.284113,12.3767919 C40.6572881,12.3501543 40.0311025,12.4427209 39.4387942,12.6495782 L37.7138222,16.5728866 C41.2038818,16.7574184 42.5276975,19.990738 42.5276975,23.8659076 C42.5276975,27.468291 41.2921362,30.6133561 37.9464928,30.6133561 C37.553667,30.6011032 37.1657502,30.5224348 36.7991859,30.3806855 L36.7991859,3.90437142 L28.8322223,3.90437142 L28.8322223,4.04076456 C30.2523155,5.51701964 30.0998761,6.8568816 30.1399917,8.98300985 L30.1399917,33.8546988 C32.5635321,34.4919237 35.0557027,34.8313977 37.5613828,34.8656126 C40.6342399,34.8656126 43.6669813,34.312017 46.0899652,31.9532181 C48.437682,29.5021546 49.6961754,26.206927 49.5800248,22.8148782 C49.6263042,20.1210869 48.7768836,17.4881654 47.165064,15.3293021 C45.7170952,13.549507 43.5764221,12.4747898 41.284113,12.3767919 Z M69.4693528,15.3293021 C68.0195532,13.5474618 65.8755277,12.472528 63.5803787,12.3767919 C62.9561797,12.3501977 62.3326295,12.4427772 61.743083,12.6495782 L60.0100879,16.5728866 C63.5081706,16.7574184 64.8239632,19.990738 64.8239632,23.8659076 C64.8239632,27.468291 63.596425,30.6133561 60.2588048,30.6133561 C59.8632898,30.6018523 59.4726109,30.5231739 59.1034747,30.3806855 L59.1034747,3.90437142 L51.1365111,3.90437142 L51.1365111,4.04076456 C52.5566043,5.51701964 52.4041649,6.8568816 52.4442806,8.98300985 L52.4442806,33.8546988 C54.8678209,34.4919237 57.3599916,34.8313977 59.8656716,34.8656126 C62.9385287,34.8656126 65.9712701,34.312017 68.394254,31.9532181 C70.7441113,29.502967 72.0054266,26.2079255 71.8923367,22.8148782 C71.9363052,20.120155 71.0840331,17.4871422 69.4693528,15.3293021 Z M74.7565925,9.02312548 L74.7565925,34.2558551 L81.3997404,34.2558551 L81.3997404,3.88030205 L73.5210312,3.88030205 L73.5210312,4.01669518 C74.8689163,5.6293434 74.7565925,6.68839596 74.7565925,9.02312548 Z M85.1224707,17.8485635 L85.1224707,34.2959707 L91.7736417,34.2959707 L91.7736417,12.7298095 L83.8147012,12.7298095 L83.8147012,12.8662026 C85.2428175,14.2943189 85.1224707,15.6341809 85.1224707,17.8485635 Z M14.3504808,3.1421745 C21.8119875,3.1421745 27.2837591,8.75836234 27.2837591,18.9316854 C27.2837591,29.1050086 21.138045,34.8575895 13.9252551,34.8575895 C6.71246534,34.8575895 1,28.7198985 1,18.9798242 C1,9.23974987 7.14571412,3.1421745 14.3504808,3.1421745 Z M8.30906731,18.9798242 C8.30906731,26.1364521 10.8203056,29.7147661 14.045602,29.7147661 C17.2708985,29.7147661 19.9666686,26.320984 19.9666686,18.9477317 C19.9666686,11.5744794 17.559731,8.27697481 14.2301339,8.27697481 C11.03693,8.27697481 8.30906731,11.7670344 8.30906731,18.9798242 Z" id="shape" fill="#527DCF"/>
        <path d="M84.7052681,4.77086898 C84.6771553,3.7832694 85.0487979,2.82611934 85.7359998,2.11626244 C86.4232017,1.40640554 87.3677984,1.0039238 88.3557902,1 C90.3355443,0.999824794 91.9478816,2.59071195 91.9742198,4.57029084 C91.9722567,5.56248464 91.5717341,6.5122859 90.8626428,7.20629016 C90.1535515,7.90029441 89.1953574,8.28030092 88.2033508,8.26092856 C86.2957463,8.21059866 84.7599782,6.67835295 84.7052681,4.77086898 L84.7052681,4.77086898 Z" id="shape" fill="url(#linearGradient-1)" fill-rule="nonzero"/>
        <path d="M212.866675,13.1550351 L212.866675,16.2439384 L216.50115,16.2439384 L216.50115,17.3350835 L212.866675,17.3350835 L212.866675,20.1351543 L217.134977,20.1351543 L217.134977,21.20223 L213.773288,21.20223 C214.415138,22.9352251 215.273612,24.082532 217.504041,26.0080821 L217.504041,26.0080821 L217.568226,26.064244 L216.765914,26.6740015 L216.725798,26.6740015 C215.125931,25.6974429 213.794201,24.3381406 212.850628,22.7186007 L212.850628,22.7186007 L212.850628,28.045956 L211.005309,28.045956 L211.005309,22.7988319 C209.761938,24.5957306 208.112778,26.0744771 206.191434,27.1152734 L206.191434,27.1152734 L206.143295,27.1152734 L205.397145,26.4974928 L205.477376,26.4413309 C207.828152,24.7484514 209.376615,22.9913869 210.074627,21.2102531 L210.074627,21.2102531 L206.472244,21.2102531 L206.472244,20.1431774 L210.989263,20.1431774 L210.989263,17.3431066 L208.526164,17.3431066 C208.035638,18.00731 207.476259,18.6177867 206.857354,19.1643561 L206.857354,19.1643561 L206.857354,19.2044717 L205.902602,18.7230842 L205.966787,18.6508761 C207.049685,17.2975589 207.814676,15.7182233 208.205239,14.0295558 L208.205239,14.0295558 L208.205239,13.9573476 L210.202997,14.3745502 L210.162881,14.4547814 C210.151686,14.4903469 210.138288,14.5251811 210.122766,14.5590821 C210.07111,14.6958464 210.01219,14.8297557 209.946257,14.9602383 C209.601262,15.6582503 209.408707,16.0032446 209.272314,16.2439384 L209.272314,16.2439384 L211.021356,16.2439384 L211.021356,13.1550351 L212.866675,13.1550351 Z M204.458439,13.1550351 L204.458439,16.5648634 L206.392012,16.5648634 L206.392012,17.6319391 L204.498555,17.6319391 C204.835524,19.281889 205.618011,20.8080157 206.761076,22.0446581 L206.761076,22.0446581 L206.889446,22.1970975 L206.087134,22.7667394 L206.047018,22.7266238 C205.449465,22.1617083 204.916657,21.5320266 204.458439,20.8492124 L204.458439,20.8492124 L204.458439,27.9897941 L202.460681,27.9897941 L202.460681,21.5712937 C201.845104,22.6176206 201.071041,23.5621939 200.166067,24.3713645 L200.166067,24.3713645 L200.101882,24.4275264 L199.299569,23.8578845 L199.347708,23.8017226 C200.910133,22.0725205 201.943252,19.9310964 202.324288,17.6319391 L202.324288,17.6319391 L199.853165,17.6319391 L199.853165,16.5648634 L202.460681,16.5648634 L202.460681,13.1550351 L204.458439,13.1550351 Z M230.180579,13.2031739 L230.180579,16.4364934 L233.253436,16.4364934 C232.769392,15.5145168 232.170954,14.6572961 231.472303,13.8851395 L231.472303,13.8851395 L231.416141,13.8289776 L232.162291,13.2593357 L232.615947,13.510624 C233.514153,14.0285326 234.356969,14.637908 235.130848,15.3293021 L235.130848,15.3293021 L235.203056,15.3934871 L233.510176,16.412424 L236.21397,16.412424 L236.21397,17.4634535 L230.204649,17.4634535 C230.597782,21.4188543 231.303817,23.6171907 232.828211,25.4304171 C233.245413,25.9198277 233.478084,26.1204059 233.831101,26.1204059 C234.184119,26.1204059 234.505044,25.9519202 235.098755,23.7134682 L235.098755,23.7134682 L235.098755,23.6091676 L235.18701,23.6733526 C235.655894,24.0520217 236.174129,24.3651218 236.72745,24.6040352 L236.72745,24.6040352 L236.799658,24.6040352 L236.799658,24.6762433 C236.165831,26.5215621 235.507935,28.0539791 233.831101,28.0539791 C232.370893,28.0539791 231.247655,26.7462097 230.942776,26.3450534 C229.073388,23.9381157 228.447584,21.0578137 228.10259,17.4794997 L228.10259,17.4794997 L219.172851,17.4794997 L219.172851,16.412424 L228.126659,16.412424 C228.110613,16.1075453 228.062474,15.1768627 228.062474,13.275382 L228.062474,13.275382 L228.062474,13.2031739 L230.180579,13.2031739 Z M227.252139,20.1110849 L227.252139,21.1621143 L224.427998,21.1621143 L224.427998,25.4304171 L224.660669,25.3822783 C225.27845,25.2539083 226.546103,24.9891452 228.311191,24.4756652 L228.311191,24.4756652 L228.407469,24.4756652 L228.407469,25.4304171 L228.35933,25.4304171 C224.516253,26.7221403 222.1735,27.3479441 220.288066,27.8373547 L220.288066,27.8373547 L219.814701,27.9416554 L219.533892,27.9978172 L219.469707,27.9978172 L218.884019,26.4573771 L218.972273,26.4573771 C219.638192,26.3691228 220.552829,26.2487759 222.358032,25.871689 L222.358032,25.871689 L222.358032,21.1621143 L219.582031,21.1621143 L219.582031,20.1110849 L227.252139,20.1110849 Z M260.52404,13.1309657 L260.52404,16.3402159 L262.882839,16.3402159 L262.882839,16.4284703 C262.463373,17.6546129 261.806324,18.7860451 260.949266,19.7580674 C261.716294,20.7706074 262.676109,21.6213531 263.773406,22.2612825 L263.773406,22.2612825 L263.845614,22.3013981 L263.292018,22.9512713 L263.259926,22.9272019 C262.304216,22.5308655 261.407848,22.0043845 260.596248,21.3626925 L260.596248,21.3626925 L260.596248,28.0299097 L258.638605,28.0299097 L258.638605,21.9403575 C257.754,22.6185605 256.81476,23.2223574 255.830511,23.7455607 L255.830511,23.7455607 L255.790396,23.7455607 L254.923898,23.1277801 L255.020176,23.0716182 C257.305257,21.7668852 259.125703,19.7809442 260.227184,17.3912454 L260.227184,17.3912454 L255.333078,17.3912454 L255.333078,16.3402159 L258.550351,16.3402159 L258.550351,13.1309657 L260.52404,13.1309657 Z M268.86809,13.1710814 L268.86809,18.1213498 L272.526636,18.1213498 L272.526636,19.1723792 L268.86809,19.1723792 L268.86809,26.5616778 L273,26.5616778 L273,27.6127072 L262.128665,27.6127072 L262.128665,26.5616778 L266.854286,26.5616778 L266.854286,19.1723792 L263.444458,19.1723792 L263.444458,18.1213498 L266.854286,18.1213498 L266.854286,13.1710814 L268.86809,13.1710814 Z M237.73034,22.1248894 L242.688632,22.1248894 C241.98782,23.5284275 241.213862,24.8942356 240.369949,26.2166834 L238.484514,26.2728453 L238.39626,26.2728453 L238.861601,27.6849153 L238.917763,27.6849153 C239.186472,27.6729384 239.454316,27.646154 239.720076,27.6046841 L239.720076,27.532476 L239.720076,27.596661 C243.40269,27.1955047 246.347177,26.8505103 249.757005,26.449354 L249.981653,26.8264409 L250.671642,27.981771 L250.671642,28.0379329 L252.709516,26.8665565 L252.645331,26.8023715 C251.280429,25.3379607 249.775621,24.0105049 248.15238,22.8389476 L248.104242,22.8389476 L247.309952,23.4647513 L247.358091,23.5209132 C248.027277,24.187763 248.639192,24.9097144 249.187364,25.679134 C246.780426,25.8476196 245.978113,25.8957584 243.234204,26.064244 L242.038759,26.128429 C243.180268,24.8628311 244.236304,23.5226836 245.19987,22.1168663 L253.463689,22.1168663 L253.463689,21.0578137 L237.73034,21.0578137 L237.73034,22.1248894 Z M246.964958,13.2031739 L246.964958,13.2031739 L244.221049,13.2031739 L244.221049,13.2432895 C242.961418,15.6502271 239.760191,17.7442629 237.144652,18.7872692 L237.048375,18.8273848 L237.75441,19.5655124 L237.75441,19.5655124 C238.931151,19.2020286 240.070305,18.7264856 241.156215,18.1454191 L241.156215,19.1322636 L250.077931,19.1322636 L250.077931,18.1694885 C251.171157,18.71973 252.309192,19.1760174 253.479736,19.5334199 L253.519851,19.5334199 L254.185771,18.7311073 L254.089493,18.7311073 C250.759896,17.5035691 248.288774,15.5940652 246.964958,13.2031739 Z M245.552888,14.6393133 C246.749612,16.0126975 248.188175,17.1548455 249.797121,18.009026 L241.300631,18.009026 C242.913147,17.1567412 244.35467,16.0144023 245.552888,14.6393133 L245.552888,14.6393133 Z M107.330482,14.2221108 L122.357796,14.2221108 L122.357796,15.6983659 L107.330482,15.6983659 L107.330482,14.2221108 Z M105.613533,25.8395965 L123.890213,25.8395965 L123.890213,27.3158516 L105.613533,27.3158516 L105.613533,25.8395965 Z M108.092679,19.8222524 L121.531414,19.8222524 L121.531414,21.2985075 L108.092679,21.2985075 L108.092679,19.8222524 Z M130.974633,18.1935579 L132.988437,18.265766 L132.988437,20.4480562 C132.988437,20.9615362 133.108784,21.0899062 134.007374,21.0899062 L134.007374,21.0899062 L135.924901,21.0899062 C136.550705,21.0899062 137.192555,21.2503687 137.393133,19.8302755 L137.393133,19.8302755 L137.393133,19.6938824 L139.20636,20.2234086 L139.20636,20.3437555 C138.636718,21.8039644 138.091145,22.036635 136.630936,22.036635 L136.630936,22.036635 L134.288184,22.036635 C134.039467,22.2693056 133.822842,22.4618607 133.566102,22.6624388 L133.566102,22.6624388 L140.072857,22.6624388 L140.072857,23.504867 L139.69647,23.8417807 C138.677812,24.7221262 137.540847,25.4568352 136.318034,26.0241284 C138.590266,26.7795749 140.960793,27.1985393 143.354315,27.2677128 L143.354315,27.2677128 L143.54687,27.2516666 L143.05746,28.2786266 L143.009321,28.2786266 C140.108246,28.1561125 137.236893,27.643371 134.472715,26.7542328 C131.733576,27.6877112 128.869034,28.2016516 125.976226,28.2786266 L125.976226,28.2786266 L125.920064,28.2786266 L125.470769,27.2837591 L125.647277,27.2837591 C128.054643,27.2496544 130.437933,26.7990551 132.691582,25.9519202 C131.949361,25.5316168 131.26895,25.0105084 130.669754,24.403457 C129.626573,24.8767076 128.554716,25.2840134 127.460504,25.6229721 L127.460504,25.6229721 L127.235856,25.6951802 L126.818654,24.7644977 L126.96307,24.7163589 C128.755211,24.1934523 130.37542,23.2019395 131.656598,21.84408 C131.157023,21.6283407 130.873747,21.0951142 130.974633,20.5603799 L130.974633,20.5603799 L130.974633,18.1935579 Z M136.74326,23.569052 L132.474957,23.569052 C133.080364,24.1982604 133.771879,24.7385058 134.528877,25.1736771 L134.521533,25.1694913 L134.81909,25.013837 C135.424576,24.6819317 135.987184,24.2771777 136.494353,23.8086111 L136.74326,23.569052 Z M129.281753,18.5786679 L130.372898,19.0199398 L130.332783,19.1081942 C129.786054,20.3046171 129.144848,21.4555672 128.415256,22.550115 L128.415256,22.550115 L128.367117,22.6143 L126.513775,21.58734 L126.626099,21.4990856 C127.656945,20.6936033 128.553327,19.7295181 129.281753,18.6428529 L129.281753,18.6428529 L129.281753,18.5786679 Z M140.120996,12.7137632 L141.228187,13.9011858 C140.931331,13.9733939 140.690638,14.0054864 140.425875,14.045602 L140.425875,14.045602 L139.800071,14.109787 L141.653413,14.9762846 C140.837293,15.6460904 139.982709,16.267606 139.094036,16.8376497 L139.094036,16.8376497 L143.410477,16.8376497 L143.410477,19.9586455 L141.348534,19.9586455 C141.757713,20.3678249 142.118754,20.7449118 142.311309,20.9695593 L142.311309,20.9695593 L142.383517,21.0578137 L140.441921,22.3816294 L140.441921,22.2612825 C140.002395,21.0718459 139.382735,19.9569979 138.604625,18.9557548 L138.604625,18.9557548 L138.548463,18.8755236 L139.479146,18.2336735 L139.527285,18.2818123 C140.154985,18.8006851 140.752356,19.3551945 141.316442,19.9425993 L141.316442,19.9425993 L141.316442,17.752286 L127.837591,17.752286 L127.821544,19.9506224 L125.767624,19.9506224 L125.767624,16.8135803 L129.289776,16.8135803 C128.922434,16.1683376 128.477891,15.5702248 127.965961,15.0324465 L127.965961,15.0324465 L127.885729,14.9522152 L128.567695,14.4788508 L127.645036,14.4788508 L127.227833,13.5160757 L127.757359,13.5160757 C133.983305,13.5160757 138.612648,13.1068963 140.064834,12.7137632 L140.064834,12.7137632 L140.120996,12.7137632 Z M134.56097,17.752286 L134.625155,17.7843785 C135.477455,18.2740256 136.283131,18.8406843 137.032093,19.477258 L137.032093,19.477258 L137.12837,19.5574892 L135.419444,20.8171199 L135.371306,20.7208424 C134.93177,19.9181161 134.39263,19.1741037 133.76668,18.5064598 L133.76668,18.5064598 L133.694472,18.4262285 L134.56097,17.752286 Z M133.453779,14.5350127 L129.073152,14.5350127 C129.879321,14.9779489 130.639849,15.4993001 131.343697,16.091499 L131.343697,16.091499 L131.447997,16.1797534 L130.332783,16.8697422 L134.119698,16.8697422 C133.729087,16.2176397 133.269094,15.6096959 132.747743,15.0565158 L132.747743,15.0565158 L132.667512,14.9682615 L133.453779,14.5350127 L133.453779,14.5350127 Z M139.414961,14.1258333 C137.754174,14.2782727 135.989086,14.3825733 133.983305,14.4387352 C134.723124,14.9095902 135.418644,15.4466718 136.061294,16.0433603 L136.061294,16.0433603 L136.157572,16.1316147 L134.986196,16.8376497 L137.778243,16.8376497 L137.465341,16.6611409 L137.561619,16.5728866 C138.279036,15.8376876 138.901652,15.0156189 139.414961,14.1258333 Z M158.838948,16.1396378 L158.838948,12.7137632 L156.43201,12.7137632 L156.43201,16.1396378 L146.354964,16.1396378 L146.354964,17.6078697 L154.033095,17.6078697 C152.259787,20.7274148 149.575052,23.2301817 146.338918,24.7805439 L146.154386,24.8768214 L146.740074,25.935874 L147.189369,25.7513421 C152.32417,23.4166126 154.883547,20.6165418 156.43201,18.3620435 L156.43201,25.5828565 C156.43201,26.0883134 156.43201,26.3450534 155.830275,26.3450534 L153.535662,26.3450534 L153.535662,27.5003835 L156.568403,27.5003835 C158.004543,27.5003835 158.830924,27.2275972 158.830924,25.8395965 L158.830924,17.6158929 L163.556545,17.6158929 L163.556545,16.1476609 L158.830924,16.1476609 L158.838948,16.1396378 Z M196.924724,16.9579966 C196.924724,16.4445165 196.924724,16.3642853 196.924724,13.6364226 L194.357324,13.6364226 C194.357324,16.1957997 194.357324,16.0433603 194.357324,16.4445165 C194.357324,22.5741844 194.084538,25.6309952 187.649991,26.4814465 L187.649991,26.4814465 L188.139402,27.7009616 L188.219633,27.7009616 C195.063359,26.7462097 196.94077,24.4195033 196.94077,18.0170491 C196.932747,17.8485635 196.924724,17.431361 196.924724,16.9579966 Z M184.777712,13.6364226 L187.345112,13.6364226 L187.345112,22.6704619 L184.777712,22.6704619 L184.777712,13.6364226 Z M178.985016,14.7917527 L180.011976,16.0513834 L179.642912,17.174621 C177.203882,24.9249602 172.317798,26.5456315 166.950327,27.5244528 L166.950327,27.5244528 L166.493009,26.3370303 C169.440985,25.95148 172.182248,24.6132475 174.29951,22.5260457 C175.892909,20.7783556 176.917052,18.5873606 177.235974,16.2439384 L177.235974,16.2439384 L165.562327,16.2439384 L165.562327,14.7917527 L178.985016,14.7917527 Z M179.915698,13.0346882 L181.857295,15.1527933 L180.557548,15.834759 C180.557548,15.834759 179.313964,14.3825733 178.744322,13.7647926 L178.744322,13.7647926 L178.631998,13.6283995 L179.915698,13.0346882 Z M181.576485,12.2724913 C181.672763,12.3527226 182.225467,12.8679855 182.797189,13.421284 L183.08261,13.6992649 C183.129769,13.7455107 183.176554,13.7915612 183.222712,13.8371865 L183.490105,14.1039994 L183.490105,14.1039994 L183.614359,14.2301339 L182.322636,14.9120996 L180.35697,12.826087 Z" id="shape" fill="#595757" fill-rule="nonzero"/>
    </g>
</svg>